<mxfile host="Electron" modified="2024-05-22T08:13:13.407Z" agent="Mozilla/5.0 (Windows NT 10.0; Win64; x64) AppleWebKit/537.36 (KHTML, like Gecko) draw.io/24.1.0 Chrome/120.0.6099.109 Electron/28.1.0 Safari/537.36" etag="Fp37nqt24Urow9_bYqld" version="24.1.0" type="device">
  <diagram id="86dkLIxwyVkqGnDBa2-D" name="Sayfa -2">
    <mxGraphModel dx="1353" dy="606" grid="1" gridSize="10" guides="1" tooltips="1" connect="1" arrows="1" fold="1" page="1" pageScale="1" pageWidth="827" pageHeight="1169" math="0" shadow="0">
      <root>
        <mxCell id="0" />
        <mxCell id="1" parent="0" />
        <mxCell id="m6AmEkIX1OqUxC3dge8z-6" style="edgeStyle=orthogonalEdgeStyle;rounded=0;orthogonalLoop=1;jettySize=auto;html=1;exitX=1;exitY=0.25;exitDx=0;exitDy=0;entryX=0;entryY=0.25;entryDx=0;entryDy=0;" parent="1" source="874xn17PkKrNrrWUMp2d-1" target="m6AmEkIX1OqUxC3dge8z-5" edge="1">
          <mxGeometry relative="1" as="geometry">
            <mxPoint x="30" y="262.5" as="targetPoint" />
          </mxGeometry>
        </mxCell>
        <mxCell id="874xn17PkKrNrrWUMp2d-1" value="&lt;font style=&quot;font-size: 14px;&quot;&gt;Kullanıcı&lt;/font&gt;" style="rounded=0;whiteSpace=wrap;html=1;fillColor=#f8cecc;strokeColor=#b85450;" parent="1" vertex="1">
          <mxGeometry x="-414" y="240" width="160" height="90" as="geometry" />
        </mxCell>
        <mxCell id="Wb152fFTuOfh5MX_0x5j-1" value="&lt;font style=&quot;font-size: 14px;&quot;&gt;Şef ve&amp;nbsp;&lt;/font&gt;&lt;span style=&quot;font-size: 14px; background-color: initial;&quot;&gt;Yazarlar&lt;/span&gt;" style="rounded=0;whiteSpace=wrap;html=1;fillColor=#f8cecc;strokeColor=#b85450;" parent="1" vertex="1">
          <mxGeometry x="25" y="510" width="160" height="90" as="geometry" />
        </mxCell>
        <mxCell id="m6AmEkIX1OqUxC3dge8z-9" style="edgeStyle=orthogonalEdgeStyle;rounded=0;orthogonalLoop=1;jettySize=auto;html=1;exitX=0.75;exitY=1;exitDx=0;exitDy=0;entryX=1;entryY=0.75;entryDx=0;entryDy=0;" parent="1" source="m6AmEkIX1OqUxC3dge8z-1" target="m6AmEkIX1OqUxC3dge8z-5" edge="1">
          <mxGeometry relative="1" as="geometry" />
        </mxCell>
        <mxCell id="m6AmEkIX1OqUxC3dge8z-1" value="&lt;font style=&quot;font-size: 14px;&quot;&gt;Market Zincirleri&lt;/font&gt;" style="rounded=0;whiteSpace=wrap;html=1;fillColor=#f8cecc;strokeColor=#b85450;" parent="1" vertex="1">
          <mxGeometry x="360" y="90" width="164" height="90" as="geometry" />
        </mxCell>
        <mxCell id="m6AmEkIX1OqUxC3dge8z-7" style="edgeStyle=orthogonalEdgeStyle;rounded=0;orthogonalLoop=1;jettySize=auto;html=1;exitX=0;exitY=0.75;exitDx=0;exitDy=0;entryX=1;entryY=0.75;entryDx=0;entryDy=0;" parent="1" source="m6AmEkIX1OqUxC3dge8z-5" target="874xn17PkKrNrrWUMp2d-1" edge="1">
          <mxGeometry relative="1" as="geometry" />
        </mxCell>
        <mxCell id="m6AmEkIX1OqUxC3dge8z-8" style="edgeStyle=orthogonalEdgeStyle;rounded=0;orthogonalLoop=1;jettySize=auto;html=1;exitX=1;exitY=0.25;exitDx=0;exitDy=0;entryX=0.25;entryY=1;entryDx=0;entryDy=0;" parent="1" source="m6AmEkIX1OqUxC3dge8z-5" target="m6AmEkIX1OqUxC3dge8z-1" edge="1">
          <mxGeometry relative="1" as="geometry" />
        </mxCell>
        <mxCell id="m6AmEkIX1OqUxC3dge8z-5" value="&lt;p style=&quot;margin: 0px; margin-top: 4px; text-align: center; text-decoration: underline;&quot;&gt;&lt;strong&gt;0&lt;/strong&gt;&lt;/p&gt;&lt;hr&gt;&lt;p style=&quot;margin: 0px; margin-left: 8px;&quot;&gt;NeYemek&amp;nbsp;&lt;/p&gt;&lt;p style=&quot;margin: 0px; margin-left: 8px;&quot;&gt;Uygulaması&lt;/p&gt;" style="verticalAlign=middle;align=center;overflow=fill;fontSize=12;fontFamily=Helvetica;html=1;rounded=1;fontStyle=1;strokeWidth=3;fillColor=#dae8fc;strokeColor=#6c8ebf;" parent="1" vertex="1">
          <mxGeometry x="50" y="240" width="110" height="90" as="geometry" />
        </mxCell>
        <mxCell id="m6AmEkIX1OqUxC3dge8z-15" style="edgeStyle=orthogonalEdgeStyle;rounded=0;orthogonalLoop=1;jettySize=auto;html=1;exitX=0.75;exitY=0;exitDx=0;exitDy=0;entryX=0.867;entryY=1.001;entryDx=0;entryDy=0;entryPerimeter=0;" parent="1" source="Wb152fFTuOfh5MX_0x5j-1" target="m6AmEkIX1OqUxC3dge8z-5" edge="1">
          <mxGeometry relative="1" as="geometry" />
        </mxCell>
        <mxCell id="_4AuGK69kEeH_atodC6D-1" value="&lt;font style=&quot;font-size: 12px;&quot;&gt;Yemek Tarif ve&lt;/font&gt;&lt;div&gt;&lt;font style=&quot;font-size: 12px;&quot;&gt;Tüyo Bilgileri&lt;/font&gt;&lt;/div&gt;" style="edgeLabel;html=1;align=center;verticalAlign=middle;resizable=0;points=[];" parent="m6AmEkIX1OqUxC3dge8z-15" vertex="1" connectable="0">
          <mxGeometry x="-0.0576" y="-2" relative="1" as="geometry">
            <mxPoint x="53" y="9" as="offset" />
          </mxGeometry>
        </mxCell>
        <mxCell id="HRfP-qZUwvPAe2flejnB-1" value="Kullanıcı Bilgileri&lt;div&gt;&lt;span style=&quot;background-color: initial;&quot;&gt;Kullanıcı Tarifleri&lt;/span&gt;&lt;/div&gt;&lt;div&gt;&lt;span style=&quot;background-color: initial;&quot;&gt;Kullanıcı Ürün Bilgileri&lt;/span&gt;&lt;/div&gt;&lt;div&gt;&lt;span style=&quot;background-color: initial;&quot;&gt;Kullanıcı Puan ve Yorumları&lt;/span&gt;&lt;/div&gt;" style="text;html=1;align=center;verticalAlign=middle;resizable=0;points=[];autosize=1;strokeColor=none;fillColor=none;" parent="1" vertex="1">
          <mxGeometry x="-195" y="190" width="170" height="70" as="geometry" />
        </mxCell>
        <mxCell id="HBzcs7OGRAPrRANyIXn1-1" value="&lt;div&gt;&lt;span style=&quot;background-color: initial;&quot;&gt;Kişiselleştirilmiş Ürün Önerileri&lt;/span&gt;&lt;/div&gt;&lt;div&gt;Kişiselleştirilmiş Yemek Tarifleri&lt;/div&gt;" style="text;html=1;align=center;verticalAlign=middle;resizable=0;points=[];autosize=1;strokeColor=none;fillColor=none;" parent="1" vertex="1">
          <mxGeometry x="-215" y="313" width="190" height="40" as="geometry" />
        </mxCell>
        <mxCell id="_4AuGK69kEeH_atodC6D-6" value="" style="endArrow=classic;html=1;rounded=0;" parent="1" edge="1">
          <mxGeometry width="50" height="50" relative="1" as="geometry">
            <mxPoint x="80" y="330" as="sourcePoint" />
            <mxPoint x="80" y="510" as="targetPoint" />
          </mxGeometry>
        </mxCell>
        <mxCell id="_4AuGK69kEeH_atodC6D-7" value="&lt;span style=&quot;background-color: rgb(255, 255, 255);&quot;&gt;Kullanıcı&amp;nbsp;&lt;/span&gt;&lt;div&gt;&lt;span style=&quot;background-color: rgb(255, 255, 255);&quot;&gt;Geribildirimleri&lt;/span&gt;&lt;/div&gt;" style="text;html=1;align=center;verticalAlign=middle;resizable=0;points=[];autosize=1;strokeColor=none;fillColor=none;" parent="1" vertex="1">
          <mxGeometry x="-25" y="413" width="100" height="40" as="geometry" />
        </mxCell>
        <mxCell id="SlZHUmqZpzNFd4GYTudN-1" value="Kullanıcı İçin Gereken Ürün Bilgileri&lt;div&gt;Kişiselleştirilmiş Kullanıcı Profilleri&lt;/div&gt;" style="text;html=1;align=center;verticalAlign=middle;resizable=0;points=[];autosize=1;strokeColor=none;fillColor=none;" parent="1" vertex="1">
          <mxGeometry x="185" y="225" width="210" height="40" as="geometry" />
        </mxCell>
        <mxCell id="HFSLxAVJRJjAl60tDQT8-1" value="Kişiselleştirilmiş Ürün Reklamları&lt;div&gt;Mevcut Ürün Bilgileri&lt;/div&gt;" style="text;html=1;align=center;verticalAlign=middle;resizable=0;points=[];autosize=1;strokeColor=none;fillColor=none;" parent="1" vertex="1">
          <mxGeometry x="185" y="313" width="200" height="40" as="geometry" />
        </mxCell>
      </root>
    </mxGraphModel>
  </diagram>
</mxfile>
